<svg width="27" height="28" viewBox="0 0 27 28" fill="none" xmlns="http://www.w3.org/2000/svg">
<path d="M27 4.66663H23.5V10.5H27V4.66663Z" fill="#FF4267"/>
<path d="M27 12.8334H23.5V18.6667H27V12.8334Z" fill="#FF4267"/>
<path d="M18.8332 0H0.166504V28H18.8332C20.7628 28 22.3332 26.4297 22.3332 24.5V3.5C22.3332 1.57033 20.7628 0 18.8332 0ZM11.2498 7C12.861 7 14.1665 8.3055 14.1665 9.91667C14.1665 11.5278 12.861 12.8333 11.2498 12.8333C9.63867 12.8333 8.33317 11.5278 8.33317 9.91667C8.33317 8.3055 9.63867 7 11.2498 7ZM16.4998 19.8333H5.99984V17.9422C5.99984 16.9027 6.68234 15.9938 7.67984 15.6998C8.60734 15.4257 9.85334 15.1667 11.2498 15.1667C12.6463 15.1667 13.8923 15.4257 14.8198 15.6998C15.8173 15.9938 16.4998 16.9027 16.4998 17.9422V19.8333Z" fill="#FF4267"/>
</svg>
